<mxfile host="app.diagrams.net" agent="Mozilla/5.0 (X11; Linux x86_64; rv:139.0) Gecko/20100101 Firefox/139.0" version="27.1.1">
  <diagram name="Page-1" id="TzrD8KqDmgdja06DbK6N">
    <mxGraphModel dx="1178" dy="523" grid="1" gridSize="10" guides="1" tooltips="1" connect="1" arrows="1" fold="1" page="1" pageScale="1" pageWidth="850" pageHeight="1100" math="0" shadow="0">
      <root>
        <mxCell id="0" />
        <mxCell id="1" parent="0" />
        <mxCell id="sPL84p8xrkgnzIj6GyMr-1" value="&lt;font style=&quot;font-size: 24px;&quot;&gt;B&lt;/font&gt;" style="whiteSpace=wrap;html=1;aspect=fixed;fillColor=#EA6B66;" vertex="1" parent="1">
          <mxGeometry x="180" y="250" width="80" height="80" as="geometry" />
        </mxCell>
        <mxCell id="sPL84p8xrkgnzIj6GyMr-2" value="&lt;font style=&quot;font-size: 24px;&quot;&gt;A&lt;/font&gt;" style="whiteSpace=wrap;html=1;aspect=fixed;fillColor=#B9E0A5;" vertex="1" parent="1">
          <mxGeometry x="180" y="150" width="80" height="80" as="geometry" />
        </mxCell>
        <mxCell id="sPL84p8xrkgnzIj6GyMr-4" value="&lt;font style=&quot;font-size: 24px;&quot;&gt;C =&amp;nbsp;&lt;/font&gt;&amp;nbsp; &amp;nbsp; &amp;nbsp; &amp;nbsp; &amp;nbsp; &amp;nbsp; &amp;nbsp; &amp;nbsp; &amp;nbsp; &amp;nbsp; &amp;nbsp;&amp;nbsp;" style="rounded=0;whiteSpace=wrap;html=1;fillColor=#A9C4EB;" vertex="1" parent="1">
          <mxGeometry x="155" y="350" width="130" height="80" as="geometry" />
        </mxCell>
        <mxCell id="sPL84p8xrkgnzIj6GyMr-5" value="&lt;font style=&quot;font-size: 24px;&quot;&gt;A&lt;/font&gt;" style="whiteSpace=wrap;html=1;aspect=fixed;fillColor=#B9E0A5;" vertex="1" parent="1">
          <mxGeometry x="210" y="360" width="30" height="30" as="geometry" />
        </mxCell>
        <mxCell id="sPL84p8xrkgnzIj6GyMr-6" value="&lt;font style=&quot;font-size: 24px;&quot;&gt;B&lt;/font&gt;" style="whiteSpace=wrap;html=1;aspect=fixed;fillColor=#EA6B66;" vertex="1" parent="1">
          <mxGeometry x="240" y="390" width="30" height="30" as="geometry" />
        </mxCell>
        <mxCell id="sPL84p8xrkgnzIj6GyMr-7" value="" style="shape=curlyBracket;whiteSpace=wrap;html=1;rounded=1;labelPosition=left;verticalLabelPosition=middle;align=right;verticalAlign=middle;" vertex="1" parent="1">
          <mxGeometry x="200" y="360" width="10" height="60" as="geometry" />
        </mxCell>
        <mxCell id="sPL84p8xrkgnzIj6GyMr-8" value="" style="shape=curlyBracket;whiteSpace=wrap;html=1;rounded=1;flipH=1;labelPosition=right;verticalLabelPosition=middle;align=left;verticalAlign=middle;" vertex="1" parent="1">
          <mxGeometry x="270" y="355" width="10" height="70" as="geometry" />
        </mxCell>
        <mxCell id="sPL84p8xrkgnzIj6GyMr-9" value="&lt;font style=&quot;font-size: 24px;&quot;&gt;D =&amp;nbsp;&lt;/font&gt;&amp;nbsp; &amp;nbsp; &amp;nbsp; &amp;nbsp; &amp;nbsp; &amp;nbsp; &amp;nbsp; &amp;nbsp; &amp;nbsp; &amp;nbsp; &amp;nbsp;&amp;nbsp;" style="rounded=0;whiteSpace=wrap;html=1;fillColor=#E1D5E7;" vertex="1" parent="1">
          <mxGeometry x="155" y="440" width="130" height="80" as="geometry" />
        </mxCell>
        <mxCell id="sPL84p8xrkgnzIj6GyMr-10" value="&lt;font style=&quot;font-size: 24px;&quot;&gt;A&lt;/font&gt;" style="whiteSpace=wrap;html=1;aspect=fixed;fillColor=#B9E0A5;" vertex="1" parent="1">
          <mxGeometry x="240" y="480" width="30" height="30" as="geometry" />
        </mxCell>
        <mxCell id="sPL84p8xrkgnzIj6GyMr-11" value="&lt;font style=&quot;font-size: 24px;&quot;&gt;B&lt;/font&gt;" style="whiteSpace=wrap;html=1;aspect=fixed;fillColor=#EA6B66;" vertex="1" parent="1">
          <mxGeometry x="210" y="450" width="30" height="30" as="geometry" />
        </mxCell>
        <mxCell id="sPL84p8xrkgnzIj6GyMr-12" value="" style="shape=curlyBracket;whiteSpace=wrap;html=1;rounded=1;flipH=1;labelPosition=right;verticalLabelPosition=middle;align=left;verticalAlign=middle;" vertex="1" parent="1">
          <mxGeometry x="270" y="445" width="10" height="70" as="geometry" />
        </mxCell>
        <mxCell id="sPL84p8xrkgnzIj6GyMr-13" value="" style="shape=curlyBracket;whiteSpace=wrap;html=1;rounded=1;labelPosition=left;verticalLabelPosition=middle;align=right;verticalAlign=middle;" vertex="1" parent="1">
          <mxGeometry x="200" y="450" width="10" height="60" as="geometry" />
        </mxCell>
        <mxCell id="sPL84p8xrkgnzIj6GyMr-14" value="" style="endArrow=none;dashed=1;html=1;rounded=0;" edge="1" parent="1">
          <mxGeometry width="50" height="50" relative="1" as="geometry">
            <mxPoint x="130" y="550" as="sourcePoint" />
            <mxPoint x="130" y="130" as="targetPoint" />
          </mxGeometry>
        </mxCell>
        <mxCell id="sPL84p8xrkgnzIj6GyMr-15" value="" style="endArrow=none;dashed=1;html=1;rounded=0;" edge="1" parent="1">
          <mxGeometry width="50" height="50" relative="1" as="geometry">
            <mxPoint x="310" y="550" as="sourcePoint" />
            <mxPoint x="310" y="130" as="targetPoint" />
          </mxGeometry>
        </mxCell>
        <mxCell id="sPL84p8xrkgnzIj6GyMr-16" value="" style="endArrow=none;dashed=1;html=1;rounded=0;" edge="1" parent="1">
          <mxGeometry width="50" height="50" relative="1" as="geometry">
            <mxPoint x="130" y="130" as="sourcePoint" />
            <mxPoint x="310" y="130" as="targetPoint" />
          </mxGeometry>
        </mxCell>
        <mxCell id="sPL84p8xrkgnzIj6GyMr-17" value="" style="endArrow=none;dashed=1;html=1;rounded=0;" edge="1" parent="1">
          <mxGeometry width="50" height="50" relative="1" as="geometry">
            <mxPoint x="130" y="549" as="sourcePoint" />
            <mxPoint x="310" y="549" as="targetPoint" />
          </mxGeometry>
        </mxCell>
        <mxCell id="sPL84p8xrkgnzIj6GyMr-18" value="&amp;nbsp; &amp;nbsp; &amp;nbsp; &amp;nbsp; &lt;b&gt;&amp;nbsp;x t&lt;/b&gt;" style="rounded=0;whiteSpace=wrap;html=1;" vertex="1" parent="1">
          <mxGeometry x="440" y="145" width="80" height="40" as="geometry" />
        </mxCell>
        <mxCell id="sPL84p8xrkgnzIj6GyMr-19" value="&lt;font style=&quot;font-size: 24px;&quot;&gt;A&lt;/font&gt;" style="whiteSpace=wrap;html=1;aspect=fixed;fillColor=#B9E0A5;" vertex="1" parent="1">
          <mxGeometry x="450" y="150" width="30" height="30" as="geometry" />
        </mxCell>
        <mxCell id="sPL84p8xrkgnzIj6GyMr-20" value="&amp;nbsp; &amp;nbsp; &amp;nbsp; &amp;nbsp; &lt;b&gt;&amp;nbsp;x t&lt;/b&gt;" style="rounded=0;whiteSpace=wrap;html=1;" vertex="1" parent="1">
          <mxGeometry x="440" y="190" width="80" height="40" as="geometry" />
        </mxCell>
        <mxCell id="sPL84p8xrkgnzIj6GyMr-22" value="&lt;font style=&quot;font-size: 24px;&quot;&gt;B&lt;/font&gt;" style="whiteSpace=wrap;html=1;aspect=fixed;fillColor=#EA6B66;" vertex="1" parent="1">
          <mxGeometry x="450" y="195" width="30" height="30" as="geometry" />
        </mxCell>
        <mxCell id="sPL84p8xrkgnzIj6GyMr-23" value="&amp;nbsp; &amp;nbsp; &amp;nbsp; &amp;nbsp;&lt;b&gt;x&lt;/b&gt; &amp;nbsp; &amp;nbsp; &amp;nbsp; &amp;nbsp; &amp;nbsp;&lt;b&gt;&amp;nbsp; x t&lt;/b&gt;" style="rounded=0;whiteSpace=wrap;html=1;" vertex="1" parent="1">
          <mxGeometry x="420" y="290" width="120" height="40" as="geometry" />
        </mxCell>
        <mxCell id="sPL84p8xrkgnzIj6GyMr-24" value="&lt;font style=&quot;font-size: 24px;&quot;&gt;A&lt;/font&gt;" style="whiteSpace=wrap;html=1;aspect=fixed;fillColor=#B9E0A5;" vertex="1" parent="1">
          <mxGeometry x="470" y="295" width="30" height="30" as="geometry" />
        </mxCell>
        <mxCell id="sPL84p8xrkgnzIj6GyMr-25" value="&amp;nbsp; &amp;nbsp; &amp;nbsp; &amp;nbsp;&lt;b&gt;x&lt;/b&gt; &amp;nbsp; &amp;nbsp; &amp;nbsp; &amp;nbsp; &amp;nbsp;&lt;b&gt;&amp;nbsp; x t&lt;/b&gt;" style="rounded=0;whiteSpace=wrap;html=1;" vertex="1" parent="1">
          <mxGeometry x="420" y="240" width="120" height="40" as="geometry" />
        </mxCell>
        <mxCell id="sPL84p8xrkgnzIj6GyMr-26" value="&lt;font style=&quot;font-size: 24px;&quot;&gt;B&lt;/font&gt;" style="whiteSpace=wrap;html=1;aspect=fixed;fillColor=#EA6B66;" vertex="1" parent="1">
          <mxGeometry x="470" y="245" width="30" height="30" as="geometry" />
        </mxCell>
        <mxCell id="sPL84p8xrkgnzIj6GyMr-27" value="&lt;font style=&quot;font-size: 24px;&quot;&gt;A&lt;/font&gt;" style="whiteSpace=wrap;html=1;aspect=fixed;fillColor=#B9E0A5;" vertex="1" parent="1">
          <mxGeometry x="430" y="245" width="30" height="30" as="geometry" />
        </mxCell>
        <mxCell id="sPL84p8xrkgnzIj6GyMr-28" value="&lt;font style=&quot;font-size: 24px;&quot;&gt;B&lt;/font&gt;" style="whiteSpace=wrap;html=1;aspect=fixed;fillColor=#EA6B66;" vertex="1" parent="1">
          <mxGeometry x="430" y="295" width="30" height="30" as="geometry" />
        </mxCell>
        <mxCell id="sPL84p8xrkgnzIj6GyMr-29" value="&amp;nbsp; &amp;nbsp; &amp;nbsp; &amp;nbsp; &lt;b&gt;&amp;nbsp;x t&lt;/b&gt;" style="rounded=0;whiteSpace=wrap;html=1;" vertex="1" parent="1">
          <mxGeometry x="440" y="350" width="80" height="40" as="geometry" />
        </mxCell>
        <mxCell id="sPL84p8xrkgnzIj6GyMr-30" value="&lt;font style=&quot;font-size: 24px;&quot;&gt;C&lt;/font&gt;" style="whiteSpace=wrap;html=1;aspect=fixed;fillColor=#A9C4EB;" vertex="1" parent="1">
          <mxGeometry x="450" y="355" width="30" height="30" as="geometry" />
        </mxCell>
        <mxCell id="sPL84p8xrkgnzIj6GyMr-31" value="&amp;nbsp; &amp;nbsp; &amp;nbsp; &amp;nbsp; &lt;b&gt;&amp;nbsp;x t&lt;/b&gt;" style="rounded=0;whiteSpace=wrap;html=1;" vertex="1" parent="1">
          <mxGeometry x="440" y="395" width="80" height="40" as="geometry" />
        </mxCell>
        <mxCell id="sPL84p8xrkgnzIj6GyMr-32" value="&lt;font style=&quot;font-size: 24px;&quot;&gt;D&lt;/font&gt;" style="whiteSpace=wrap;html=1;aspect=fixed;fillColor=#E1D5E7;" vertex="1" parent="1">
          <mxGeometry x="450" y="400" width="30" height="30" as="geometry" />
        </mxCell>
        <mxCell id="sPL84p8xrkgnzIj6GyMr-33" value="&amp;nbsp; &amp;nbsp; &amp;nbsp; &amp;nbsp;&lt;b&gt;x&lt;/b&gt; &amp;nbsp; &amp;nbsp; &amp;nbsp; &amp;nbsp; &amp;nbsp;&lt;b&gt;&amp;nbsp; x t&lt;/b&gt;" style="rounded=0;whiteSpace=wrap;html=1;" vertex="1" parent="1">
          <mxGeometry x="420" y="495" width="120" height="40" as="geometry" />
        </mxCell>
        <mxCell id="sPL84p8xrkgnzIj6GyMr-34" value="&lt;font style=&quot;font-size: 24px;&quot;&gt;C&lt;/font&gt;" style="whiteSpace=wrap;html=1;aspect=fixed;fillColor=#A9C4EB;" vertex="1" parent="1">
          <mxGeometry x="470" y="500" width="30" height="30" as="geometry" />
        </mxCell>
        <mxCell id="sPL84p8xrkgnzIj6GyMr-35" value="&amp;nbsp; &amp;nbsp; &amp;nbsp; &amp;nbsp;&lt;b&gt;x&lt;/b&gt; &amp;nbsp; &amp;nbsp; &amp;nbsp; &amp;nbsp; &amp;nbsp;&lt;b&gt;&amp;nbsp; x t&lt;/b&gt;" style="rounded=0;whiteSpace=wrap;html=1;" vertex="1" parent="1">
          <mxGeometry x="420" y="445" width="120" height="40" as="geometry" />
        </mxCell>
        <mxCell id="sPL84p8xrkgnzIj6GyMr-36" value="&lt;font style=&quot;font-size: 24px;&quot;&gt;D&lt;/font&gt;" style="whiteSpace=wrap;html=1;aspect=fixed;fillColor=#E1D5E7;" vertex="1" parent="1">
          <mxGeometry x="470" y="450" width="30" height="30" as="geometry" />
        </mxCell>
        <mxCell id="sPL84p8xrkgnzIj6GyMr-37" value="&lt;font style=&quot;font-size: 24px;&quot;&gt;C&lt;/font&gt;" style="whiteSpace=wrap;html=1;aspect=fixed;fillColor=#A9C4EB;" vertex="1" parent="1">
          <mxGeometry x="430" y="450" width="30" height="30" as="geometry" />
        </mxCell>
        <mxCell id="sPL84p8xrkgnzIj6GyMr-38" value="&lt;font style=&quot;font-size: 24px;&quot;&gt;D&lt;/font&gt;" style="whiteSpace=wrap;html=1;aspect=fixed;fillColor=#E1D5E7;" vertex="1" parent="1">
          <mxGeometry x="430" y="500" width="30" height="30" as="geometry" />
        </mxCell>
        <mxCell id="sPL84p8xrkgnzIj6GyMr-39" value="" style="endArrow=none;dashed=1;html=1;rounded=0;" edge="1" parent="1">
          <mxGeometry width="50" height="50" relative="1" as="geometry">
            <mxPoint x="389.6" y="130" as="sourcePoint" />
            <mxPoint x="569.6" y="130" as="targetPoint" />
          </mxGeometry>
        </mxCell>
        <mxCell id="sPL84p8xrkgnzIj6GyMr-40" value="" style="endArrow=none;dashed=1;html=1;rounded=0;" edge="1" parent="1">
          <mxGeometry width="50" height="50" relative="1" as="geometry">
            <mxPoint x="569.6" y="550" as="sourcePoint" />
            <mxPoint x="569.6" y="130" as="targetPoint" />
          </mxGeometry>
        </mxCell>
        <mxCell id="sPL84p8xrkgnzIj6GyMr-41" value="" style="endArrow=none;dashed=1;html=1;rounded=0;" edge="1" parent="1">
          <mxGeometry width="50" height="50" relative="1" as="geometry">
            <mxPoint x="389.6" y="549" as="sourcePoint" />
            <mxPoint x="569.6" y="549" as="targetPoint" />
          </mxGeometry>
        </mxCell>
        <mxCell id="sPL84p8xrkgnzIj6GyMr-42" value="" style="endArrow=none;dashed=1;html=1;rounded=0;" edge="1" parent="1">
          <mxGeometry width="50" height="50" relative="1" as="geometry">
            <mxPoint x="389.6" y="550" as="sourcePoint" />
            <mxPoint x="389.6" y="130" as="targetPoint" />
          </mxGeometry>
        </mxCell>
        <mxCell id="sPL84p8xrkgnzIj6GyMr-43" value="&lt;div&gt;&lt;b&gt;q1&lt;/b&gt;&lt;/div&gt;" style="ellipse;whiteSpace=wrap;html=1;aspect=fixed;" vertex="1" parent="1">
          <mxGeometry x="680" y="230" width="45" height="45" as="geometry" />
        </mxCell>
        <mxCell id="sPL84p8xrkgnzIj6GyMr-44" value="&lt;b&gt;q2&lt;/b&gt;" style="ellipse;whiteSpace=wrap;html=1;aspect=fixed;" vertex="1" parent="1">
          <mxGeometry x="680" y="305" width="45" height="45" as="geometry" />
        </mxCell>
        <mxCell id="sPL84p8xrkgnzIj6GyMr-45" value="&lt;b&gt;q3&lt;/b&gt;" style="ellipse;whiteSpace=wrap;html=1;aspect=fixed;" vertex="1" parent="1">
          <mxGeometry x="680" y="380" width="45" height="45" as="geometry" />
        </mxCell>
        <mxCell id="sPL84p8xrkgnzIj6GyMr-48" value="" style="endArrow=classic;html=1;rounded=0;strokeColor=#B9E0A5;exitX=1;exitY=0.5;exitDx=0;exitDy=0;entryX=0;entryY=0.5;entryDx=0;entryDy=0;" edge="1" parent="1" source="sPL84p8xrkgnzIj6GyMr-18" target="sPL84p8xrkgnzIj6GyMr-43">
          <mxGeometry width="50" height="50" relative="1" as="geometry">
            <mxPoint x="610" y="230" as="sourcePoint" />
            <mxPoint x="660" y="180" as="targetPoint" />
          </mxGeometry>
        </mxCell>
        <mxCell id="sPL84p8xrkgnzIj6GyMr-49" value="" style="endArrow=classic;html=1;rounded=0;strokeColor=#B9E0A5;exitX=1;exitY=0.5;exitDx=0;exitDy=0;entryX=0;entryY=0.5;entryDx=0;entryDy=0;" edge="1" parent="1" source="sPL84p8xrkgnzIj6GyMr-18" target="sPL84p8xrkgnzIj6GyMr-44">
          <mxGeometry width="50" height="50" relative="1" as="geometry">
            <mxPoint x="530" y="175" as="sourcePoint" />
            <mxPoint x="690" y="268" as="targetPoint" />
          </mxGeometry>
        </mxCell>
        <mxCell id="sPL84p8xrkgnzIj6GyMr-50" value="" style="endArrow=classic;html=1;rounded=0;strokeColor=#B9E0A5;exitX=1;exitY=0.5;exitDx=0;exitDy=0;entryX=0;entryY=0.5;entryDx=0;entryDy=0;" edge="1" parent="1" source="sPL84p8xrkgnzIj6GyMr-18" target="sPL84p8xrkgnzIj6GyMr-45">
          <mxGeometry width="50" height="50" relative="1" as="geometry">
            <mxPoint x="530" y="175" as="sourcePoint" />
            <mxPoint x="690" y="343" as="targetPoint" />
          </mxGeometry>
        </mxCell>
        <mxCell id="sPL84p8xrkgnzIj6GyMr-51" value="" style="endArrow=classic;html=1;rounded=0;strokeColor=#FF6666;exitX=1;exitY=0.5;exitDx=0;exitDy=0;entryX=0;entryY=0.5;entryDx=0;entryDy=0;" edge="1" parent="1" source="sPL84p8xrkgnzIj6GyMr-20" target="sPL84p8xrkgnzIj6GyMr-43">
          <mxGeometry width="50" height="50" relative="1" as="geometry">
            <mxPoint x="530" y="211" as="sourcePoint" />
            <mxPoint x="690" y="304" as="targetPoint" />
          </mxGeometry>
        </mxCell>
        <mxCell id="sPL84p8xrkgnzIj6GyMr-52" value="" style="endArrow=classic;html=1;rounded=0;strokeColor=#FF6666;exitX=1;exitY=0.5;exitDx=0;exitDy=0;entryX=0;entryY=0.5;entryDx=0;entryDy=0;" edge="1" parent="1" source="sPL84p8xrkgnzIj6GyMr-20" target="sPL84p8xrkgnzIj6GyMr-44">
          <mxGeometry width="50" height="50" relative="1" as="geometry">
            <mxPoint x="530" y="227" as="sourcePoint" />
            <mxPoint x="690" y="275" as="targetPoint" />
          </mxGeometry>
        </mxCell>
        <mxCell id="sPL84p8xrkgnzIj6GyMr-53" value="" style="endArrow=classic;html=1;rounded=0;strokeColor=#FF6666;exitX=1;exitY=0.5;exitDx=0;exitDy=0;entryX=0;entryY=0.5;entryDx=0;entryDy=0;" edge="1" parent="1" source="sPL84p8xrkgnzIj6GyMr-20" target="sPL84p8xrkgnzIj6GyMr-45">
          <mxGeometry width="50" height="50" relative="1" as="geometry">
            <mxPoint x="530" y="220" as="sourcePoint" />
            <mxPoint x="690" y="343" as="targetPoint" />
          </mxGeometry>
        </mxCell>
        <mxCell id="sPL84p8xrkgnzIj6GyMr-54" value="" style="endArrow=none;dashed=1;html=1;dashPattern=1 3;strokeWidth=2;rounded=0;" edge="1" parent="1">
          <mxGeometry width="50" height="50" relative="1" as="geometry">
            <mxPoint x="620" y="380" as="sourcePoint" />
            <mxPoint x="620" y="350" as="targetPoint" />
          </mxGeometry>
        </mxCell>
        <mxCell id="sPL84p8xrkgnzIj6GyMr-59" value="" style="html=1;shadow=0;dashed=0;align=center;verticalAlign=middle;shape=mxgraph.arrows2.arrow;dy=0.67;dx=20;notch=0;fillColor=#B3B3B3;" vertex="1" parent="1">
          <mxGeometry x="320" y="220" width="60" height="40" as="geometry" />
        </mxCell>
        <mxCell id="sPL84p8xrkgnzIj6GyMr-60" value="" style="html=1;shadow=0;dashed=0;align=center;verticalAlign=middle;shape=mxgraph.arrows2.arrow;dy=0.67;dx=20;notch=0;fillColor=#B3B3B3;" vertex="1" parent="1">
          <mxGeometry x="320" y="410" width="60" height="40" as="geometry" />
        </mxCell>
      </root>
    </mxGraphModel>
  </diagram>
</mxfile>
